# xmcd
#
# Track frame offsets:
#	150
#	13135
#	25938
#	43061
#	58098
#	69932
#	87465
#	106683
#	124196
#	140611
#	158065
#	181945
#	205883
#	225166
#	243012
#	261046
#	277685
#	297978
#
# Disc length: 4201 seconds
#
# Revision: 0
# Processed by: cddbd v1.5.2PL0 Copyright (c) Steve Scherf et al.
# Submitted via: audiograbber 1.83.01
#
DISCID=ef106712
DTITLE=Smokie - It's Country Time
DYEAR=2003
DGENRE=Folk
TTITLE0=Ain't it funny how it works
TTITLE1=All she ever really wanted
TTITLE2=And the night stood still
TTITLE3=She rides wild horses
TTITLE4=What are we waiting for
TTITLE5=Goodbye yesterday's heartache
TTITLE6=Lay back in the arms of someone
TTITLE7=The wrong reasons
TTITLE8=Desperate measures
TTITLE9=When the walls come down
TTITLE10=If you think you know how to love me
TTITLE11=No rest for the wounded heart
TTITLE12=I can be a heartbreaker too
TTITLE13=Looking for you
TTITLE14=Till hell freezes over
TTITLE15=Mexican girl
TTITLE16=Rock 'n' Roll rodeo
TTITLE17=When it's the right time
EXTD=
EXTT0=
EXTT1=
EXTT2=
EXTT3=
EXTT4=
EXTT5=
EXTT6=
EXTT7=
EXTT8=
EXTT9=
EXTT10=
EXTT11=
EXTT12=
EXTT13=
EXTT14=
EXTT15=
EXTT16=
EXTT17=
PLAYORDER=
